<mxfile host="app.diagrams.net" modified="2023-12-14T02:19:05.210Z" agent="Mozilla/5.0 (Macintosh; Intel Mac OS X 10_15_7) AppleWebKit/537.36 (KHTML, like Gecko) Chrome/103.0.0.0 Safari/537.36" etag="JBpkPt0ML6cc-tBWFDLt" version="22.1.7" type="github">
  <diagram name="Page-1" id="c7558073-3199-34d8-9f00-42111426c3f3">
    <mxGraphModel dx="1434" dy="837" grid="0" gridSize="10" guides="1" tooltips="1" connect="1" arrows="1" fold="1" page="1" pageScale="1" pageWidth="826" pageHeight="1169" background="none" math="0" shadow="0">
      <root>
        <mxCell id="0" />
        <mxCell id="1" parent="0" />
        <mxCell id="NrHyhNAeNVvxgQB99qCo-200" value="&lt;div&gt;&lt;img src=&quot;https://rte.weiyun.baidu.com/wiki/attach/image/api/imageDownloadAddress?attachId=b3af547da88041c3bb205ecfa54c4aca&amp;amp;docGuid=dGS7cRzLf0J56o&quot; height=&quot;344&quot; width=&quot;317&quot; data-caption=&quot;线上BFE代理&quot; data-image-height=&quot;344&quot; data-image-width=&quot;317&quot; data-x=&quot;0&quot; data-y=&quot;0&quot; data-width=&quot;317&quot; data-height=&quot;344&quot; data-indent=&quot;2&quot; data-mime-type=&quot;image/png&quot;&gt;&lt;/div&gt;&lt;span data-morpho-doc-data=&quot;{&amp;quot;token&amp;quot;:&amp;quot;eyJhbGciOiJkaXIiLCJlbmMiOiJBMjU2R0NNIiwiYXBwSWQiOjEsInVpZCI6ImdlTGlMZHN5RGwiLCJkb2NJZCI6ImRHUzdjUnpMZjBKNTZvIn0..szkwYM8jar9j_FQu.sjTBWo61OrBe-VoQlpThj_HotYH-lvMdjTiS-XT4AMzUFIBTSYL3M2rGAdtrwsNaxw0dzS4T42L69lj_GqnoUHtAV8vEh4SuYdo15R1QqxxQSQfppmfcGrzFKnz-y1kXvEMiysEKeYVwuaFcO3pR-6qwYxU30SUhvkra1WK7ok1wVp-oEH1vfaImid2hRmN0UfUXWlnyW7L3I8kEufhiNh1UcA.efQHzibwA6g8ZKjyPzrj3Q&amp;quot;}&quot; class=&quot;mp-morpho-clipboard-doc-data&quot;&gt;&lt;/span&gt;" style="text;whiteSpace=wrap;html=1;" vertex="1" parent="1">
          <mxGeometry x="788" y="50" width="345" height="369" as="geometry" />
        </mxCell>
        <mxCell id="NrHyhNAeNVvxgQB99qCo-226" style="rounded=0;orthogonalLoop=1;jettySize=auto;html=1;exitX=0.5;exitY=1;exitDx=0;exitDy=0;" edge="1" parent="1" source="NrHyhNAeNVvxgQB99qCo-230" target="NrHyhNAeNVvxgQB99qCo-232">
          <mxGeometry relative="1" as="geometry" />
        </mxCell>
        <mxCell id="NrHyhNAeNVvxgQB99qCo-227" style="rounded=0;orthogonalLoop=1;jettySize=auto;html=1;exitX=0.5;exitY=1;exitDx=0;exitDy=0;" edge="1" parent="1" source="NrHyhNAeNVvxgQB99qCo-230" target="NrHyhNAeNVvxgQB99qCo-234">
          <mxGeometry relative="1" as="geometry" />
        </mxCell>
        <mxCell id="NrHyhNAeNVvxgQB99qCo-228" style="rounded=0;orthogonalLoop=1;jettySize=auto;html=1;exitX=0.5;exitY=1;exitDx=0;exitDy=0;entryX=0.5;entryY=0;entryDx=0;entryDy=0;" edge="1" parent="1" source="NrHyhNAeNVvxgQB99qCo-230" target="NrHyhNAeNVvxgQB99qCo-236">
          <mxGeometry relative="1" as="geometry" />
        </mxCell>
        <mxCell id="NrHyhNAeNVvxgQB99qCo-229" style="rounded=0;orthogonalLoop=1;jettySize=auto;html=1;exitX=0.5;exitY=1;exitDx=0;exitDy=0;entryX=0.5;entryY=0;entryDx=0;entryDy=0;" edge="1" parent="1" source="NrHyhNAeNVvxgQB99qCo-230" target="NrHyhNAeNVvxgQB99qCo-238">
          <mxGeometry relative="1" as="geometry" />
        </mxCell>
        <mxCell id="NrHyhNAeNVvxgQB99qCo-230" value="交换机" style="rounded=0;whiteSpace=wrap;html=1;fillColor=#1ba1e2;strokeColor=#006EAF;fontColor=#ffffff;" vertex="1" parent="1">
          <mxGeometry x="1095" y="564" width="87" height="38" as="geometry" />
        </mxCell>
        <mxCell id="NrHyhNAeNVvxgQB99qCo-231" style="rounded=0;orthogonalLoop=1;jettySize=auto;html=1;exitX=0.5;exitY=1;exitDx=0;exitDy=0;entryX=0.5;entryY=0;entryDx=0;entryDy=0;" edge="1" parent="1" source="NrHyhNAeNVvxgQB99qCo-232" target="NrHyhNAeNVvxgQB99qCo-245">
          <mxGeometry relative="1" as="geometry" />
        </mxCell>
        <mxCell id="NrHyhNAeNVvxgQB99qCo-232" value="BGW1" style="rounded=0;whiteSpace=wrap;html=1;fillColor=#d5e8d4;strokeColor=#82b366;" vertex="1" parent="1">
          <mxGeometry x="921" y="655" width="87" height="38" as="geometry" />
        </mxCell>
        <mxCell id="NrHyhNAeNVvxgQB99qCo-233" style="rounded=0;orthogonalLoop=1;jettySize=auto;html=1;exitX=0.5;exitY=1;exitDx=0;exitDy=0;entryX=0.5;entryY=0;entryDx=0;entryDy=0;" edge="1" parent="1" source="NrHyhNAeNVvxgQB99qCo-234" target="NrHyhNAeNVvxgQB99qCo-245">
          <mxGeometry relative="1" as="geometry" />
        </mxCell>
        <mxCell id="NrHyhNAeNVvxgQB99qCo-234" value="BGW2" style="rounded=0;whiteSpace=wrap;html=1;fillColor=#d5e8d4;strokeColor=#82b366;" vertex="1" parent="1">
          <mxGeometry x="1038" y="656" width="87" height="38" as="geometry" />
        </mxCell>
        <mxCell id="NrHyhNAeNVvxgQB99qCo-235" style="rounded=0;orthogonalLoop=1;jettySize=auto;html=1;exitX=0.5;exitY=1;exitDx=0;exitDy=0;entryX=0.5;entryY=0;entryDx=0;entryDy=0;" edge="1" parent="1" source="NrHyhNAeNVvxgQB99qCo-236" target="NrHyhNAeNVvxgQB99qCo-245">
          <mxGeometry relative="1" as="geometry" />
        </mxCell>
        <mxCell id="NrHyhNAeNVvxgQB99qCo-236" value="BGW3" style="rounded=0;whiteSpace=wrap;html=1;fillColor=#d5e8d4;strokeColor=#82b366;" vertex="1" parent="1">
          <mxGeometry x="1155" y="656" width="87" height="38" as="geometry" />
        </mxCell>
        <mxCell id="NrHyhNAeNVvxgQB99qCo-237" style="rounded=0;orthogonalLoop=1;jettySize=auto;html=1;exitX=0.5;exitY=1;exitDx=0;exitDy=0;entryX=0.5;entryY=0;entryDx=0;entryDy=0;" edge="1" parent="1" source="NrHyhNAeNVvxgQB99qCo-238" target="NrHyhNAeNVvxgQB99qCo-245">
          <mxGeometry relative="1" as="geometry" />
        </mxCell>
        <mxCell id="NrHyhNAeNVvxgQB99qCo-238" value="BGW4" style="rounded=0;whiteSpace=wrap;html=1;fillColor=#d5e8d4;strokeColor=#82b366;" vertex="1" parent="1">
          <mxGeometry x="1273" y="655" width="87" height="38" as="geometry" />
        </mxCell>
        <mxCell id="NrHyhNAeNVvxgQB99qCo-239" value="…" style="text;spacingTop=-5;align=center" vertex="1" parent="1">
          <mxGeometry x="1240" y="665" width="30" height="20" as="geometry" />
        </mxCell>
        <mxCell id="NrHyhNAeNVvxgQB99qCo-240" value="" style="group" vertex="1" connectable="0" parent="1">
          <mxGeometry x="1084" y="944" width="103" height="52" as="geometry" />
        </mxCell>
        <mxCell id="NrHyhNAeNVvxgQB99qCo-241" value="RS" style="rounded=0;whiteSpace=wrap;html=1;fillColor=#dae8fc;strokeColor=#6c8ebf;" vertex="1" parent="NrHyhNAeNVvxgQB99qCo-240">
          <mxGeometry x="16" width="87" height="38" as="geometry" />
        </mxCell>
        <mxCell id="NrHyhNAeNVvxgQB99qCo-242" value="RS" style="rounded=0;whiteSpace=wrap;html=1;fillColor=#dae8fc;strokeColor=#6c8ebf;" vertex="1" parent="NrHyhNAeNVvxgQB99qCo-240">
          <mxGeometry x="9" y="6" width="87" height="38" as="geometry" />
        </mxCell>
        <mxCell id="NrHyhNAeNVvxgQB99qCo-243" value="RS" style="rounded=0;whiteSpace=wrap;html=1;fillColor=#dae8fc;strokeColor=#6c8ebf;" vertex="1" parent="NrHyhNAeNVvxgQB99qCo-240">
          <mxGeometry y="14" width="87" height="38" as="geometry" />
        </mxCell>
        <mxCell id="NrHyhNAeNVvxgQB99qCo-244" value="" style="group" vertex="1" connectable="0" parent="1">
          <mxGeometry x="1084" y="764" width="101" height="50" as="geometry" />
        </mxCell>
        <mxCell id="NrHyhNAeNVvxgQB99qCo-245" value="BFE" style="rounded=0;whiteSpace=wrap;html=1;fillColor=#60a917;strokeColor=#2D7600;fontColor=#ffffff;" vertex="1" parent="NrHyhNAeNVvxgQB99qCo-244">
          <mxGeometry x="14" width="87" height="38" as="geometry" />
        </mxCell>
        <mxCell id="NrHyhNAeNVvxgQB99qCo-246" value="BFE" style="rounded=0;whiteSpace=wrap;html=1;fillColor=#60a917;strokeColor=#2D7600;fontColor=#ffffff;" vertex="1" parent="NrHyhNAeNVvxgQB99qCo-244">
          <mxGeometry x="6" y="6" width="87" height="38" as="geometry" />
        </mxCell>
        <mxCell id="NrHyhNAeNVvxgQB99qCo-247" value="BFE" style="rounded=0;whiteSpace=wrap;html=1;fillColor=#60a917;strokeColor=#2D7600;fontColor=#ffffff;" vertex="1" parent="NrHyhNAeNVvxgQB99qCo-244">
          <mxGeometry y="12" width="87" height="38" as="geometry" />
        </mxCell>
        <mxCell id="NrHyhNAeNVvxgQB99qCo-249" value="" style="group" vertex="1" connectable="0" parent="1">
          <mxGeometry x="1167" y="90" width="439" height="361" as="geometry" />
        </mxCell>
        <mxCell id="NrHyhNAeNVvxgQB99qCo-201" value="交换机" style="rounded=0;whiteSpace=wrap;html=1;fillColor=#1ba1e2;strokeColor=#006EAF;fontColor=#ffffff;" vertex="1" parent="NrHyhNAeNVvxgQB99qCo-249">
          <mxGeometry x="174" width="87" height="38" as="geometry" />
        </mxCell>
        <mxCell id="NrHyhNAeNVvxgQB99qCo-202" value="BGW1" style="rounded=0;whiteSpace=wrap;html=1;fillColor=#d5e8d4;strokeColor=#82b366;" vertex="1" parent="NrHyhNAeNVvxgQB99qCo-249">
          <mxGeometry y="91" width="87" height="38" as="geometry" />
        </mxCell>
        <mxCell id="NrHyhNAeNVvxgQB99qCo-210" style="rounded=0;orthogonalLoop=1;jettySize=auto;html=1;exitX=0.5;exitY=1;exitDx=0;exitDy=0;" edge="1" parent="NrHyhNAeNVvxgQB99qCo-249" source="NrHyhNAeNVvxgQB99qCo-201" target="NrHyhNAeNVvxgQB99qCo-202">
          <mxGeometry relative="1" as="geometry" />
        </mxCell>
        <mxCell id="NrHyhNAeNVvxgQB99qCo-203" value="BGW2" style="rounded=0;whiteSpace=wrap;html=1;fillColor=#d5e8d4;strokeColor=#82b366;" vertex="1" parent="NrHyhNAeNVvxgQB99qCo-249">
          <mxGeometry x="117" y="92" width="87" height="38" as="geometry" />
        </mxCell>
        <mxCell id="NrHyhNAeNVvxgQB99qCo-211" style="rounded=0;orthogonalLoop=1;jettySize=auto;html=1;exitX=0.5;exitY=1;exitDx=0;exitDy=0;" edge="1" parent="NrHyhNAeNVvxgQB99qCo-249" source="NrHyhNAeNVvxgQB99qCo-201" target="NrHyhNAeNVvxgQB99qCo-203">
          <mxGeometry relative="1" as="geometry" />
        </mxCell>
        <mxCell id="NrHyhNAeNVvxgQB99qCo-204" value="BGW3" style="rounded=0;whiteSpace=wrap;html=1;fillColor=#d5e8d4;strokeColor=#82b366;" vertex="1" parent="NrHyhNAeNVvxgQB99qCo-249">
          <mxGeometry x="234" y="92" width="87" height="38" as="geometry" />
        </mxCell>
        <mxCell id="NrHyhNAeNVvxgQB99qCo-212" style="rounded=0;orthogonalLoop=1;jettySize=auto;html=1;exitX=0.5;exitY=1;exitDx=0;exitDy=0;entryX=0.5;entryY=0;entryDx=0;entryDy=0;" edge="1" parent="NrHyhNAeNVvxgQB99qCo-249" source="NrHyhNAeNVvxgQB99qCo-201" target="NrHyhNAeNVvxgQB99qCo-204">
          <mxGeometry relative="1" as="geometry" />
        </mxCell>
        <mxCell id="NrHyhNAeNVvxgQB99qCo-205" value="BGW4" style="rounded=0;whiteSpace=wrap;html=1;fillColor=#d5e8d4;strokeColor=#82b366;" vertex="1" parent="NrHyhNAeNVvxgQB99qCo-249">
          <mxGeometry x="352" y="91" width="87" height="38" as="geometry" />
        </mxCell>
        <mxCell id="NrHyhNAeNVvxgQB99qCo-213" style="rounded=0;orthogonalLoop=1;jettySize=auto;html=1;exitX=0.5;exitY=1;exitDx=0;exitDy=0;entryX=0.5;entryY=0;entryDx=0;entryDy=0;" edge="1" parent="NrHyhNAeNVvxgQB99qCo-249" source="NrHyhNAeNVvxgQB99qCo-201" target="NrHyhNAeNVvxgQB99qCo-205">
          <mxGeometry relative="1" as="geometry" />
        </mxCell>
        <mxCell id="NrHyhNAeNVvxgQB99qCo-206" value="…" style="text;spacingTop=-5;align=center" vertex="1" parent="NrHyhNAeNVvxgQB99qCo-249">
          <mxGeometry x="319" y="101" width="30" height="20" as="geometry" />
        </mxCell>
        <mxCell id="NrHyhNAeNVvxgQB99qCo-221" value="" style="group" vertex="1" connectable="0" parent="NrHyhNAeNVvxgQB99qCo-249">
          <mxGeometry x="163" y="309" width="103" height="52" as="geometry" />
        </mxCell>
        <mxCell id="NrHyhNAeNVvxgQB99qCo-209" value="RS" style="rounded=0;whiteSpace=wrap;html=1;fillColor=#dae8fc;strokeColor=#6c8ebf;" vertex="1" parent="NrHyhNAeNVvxgQB99qCo-221">
          <mxGeometry x="16" width="87" height="38" as="geometry" />
        </mxCell>
        <mxCell id="NrHyhNAeNVvxgQB99qCo-218" value="RS" style="rounded=0;whiteSpace=wrap;html=1;fillColor=#dae8fc;strokeColor=#6c8ebf;" vertex="1" parent="NrHyhNAeNVvxgQB99qCo-221">
          <mxGeometry x="9" y="6" width="87" height="38" as="geometry" />
        </mxCell>
        <mxCell id="NrHyhNAeNVvxgQB99qCo-219" value="RS" style="rounded=0;whiteSpace=wrap;html=1;fillColor=#dae8fc;strokeColor=#6c8ebf;" vertex="1" parent="NrHyhNAeNVvxgQB99qCo-221">
          <mxGeometry y="14" width="87" height="38" as="geometry" />
        </mxCell>
        <mxCell id="NrHyhNAeNVvxgQB99qCo-224" value="" style="group" vertex="1" connectable="0" parent="NrHyhNAeNVvxgQB99qCo-249">
          <mxGeometry x="163" y="200" width="101" height="50" as="geometry" />
        </mxCell>
        <mxCell id="NrHyhNAeNVvxgQB99qCo-208" value="BFE" style="rounded=0;whiteSpace=wrap;html=1;fillColor=#60a917;strokeColor=#2D7600;fontColor=#ffffff;" vertex="1" parent="NrHyhNAeNVvxgQB99qCo-224">
          <mxGeometry x="14" width="87" height="40" as="geometry" />
        </mxCell>
        <mxCell id="NrHyhNAeNVvxgQB99qCo-222" value="BFE" style="rounded=0;whiteSpace=wrap;html=1;fillColor=#60a917;strokeColor=#2D7600;fontColor=#ffffff;" vertex="1" parent="NrHyhNAeNVvxgQB99qCo-224">
          <mxGeometry x="6" y="6" width="87" height="38" as="geometry" />
        </mxCell>
        <mxCell id="NrHyhNAeNVvxgQB99qCo-223" value="BFE" style="rounded=0;whiteSpace=wrap;html=1;fillColor=#60a917;strokeColor=#2D7600;fontColor=#ffffff;" vertex="1" parent="NrHyhNAeNVvxgQB99qCo-224">
          <mxGeometry y="12" width="87" height="38" as="geometry" />
        </mxCell>
        <mxCell id="NrHyhNAeNVvxgQB99qCo-214" style="rounded=0;orthogonalLoop=1;jettySize=auto;html=1;exitX=0.5;exitY=1;exitDx=0;exitDy=0;entryX=0.5;entryY=0;entryDx=0;entryDy=0;" edge="1" parent="NrHyhNAeNVvxgQB99qCo-249" source="NrHyhNAeNVvxgQB99qCo-202" target="NrHyhNAeNVvxgQB99qCo-208">
          <mxGeometry relative="1" as="geometry" />
        </mxCell>
        <mxCell id="NrHyhNAeNVvxgQB99qCo-215" style="rounded=0;orthogonalLoop=1;jettySize=auto;html=1;exitX=0.5;exitY=1;exitDx=0;exitDy=0;entryX=0.5;entryY=0;entryDx=0;entryDy=0;" edge="1" parent="NrHyhNAeNVvxgQB99qCo-249" source="NrHyhNAeNVvxgQB99qCo-203" target="NrHyhNAeNVvxgQB99qCo-208">
          <mxGeometry relative="1" as="geometry" />
        </mxCell>
        <mxCell id="NrHyhNAeNVvxgQB99qCo-216" style="rounded=0;orthogonalLoop=1;jettySize=auto;html=1;exitX=0.5;exitY=1;exitDx=0;exitDy=0;entryX=0.5;entryY=0;entryDx=0;entryDy=0;" edge="1" parent="NrHyhNAeNVvxgQB99qCo-249" source="NrHyhNAeNVvxgQB99qCo-204" target="NrHyhNAeNVvxgQB99qCo-208">
          <mxGeometry relative="1" as="geometry" />
        </mxCell>
        <mxCell id="NrHyhNAeNVvxgQB99qCo-217" style="rounded=0;orthogonalLoop=1;jettySize=auto;html=1;exitX=0.5;exitY=1;exitDx=0;exitDy=0;entryX=0.5;entryY=0;entryDx=0;entryDy=0;" edge="1" parent="NrHyhNAeNVvxgQB99qCo-249" source="NrHyhNAeNVvxgQB99qCo-205" target="NrHyhNAeNVvxgQB99qCo-208">
          <mxGeometry relative="1" as="geometry" />
        </mxCell>
        <mxCell id="NrHyhNAeNVvxgQB99qCo-225" style="rounded=0;orthogonalLoop=1;jettySize=auto;html=1;exitX=0.5;exitY=1;exitDx=0;exitDy=0;entryX=0.5;entryY=0;entryDx=0;entryDy=0;" edge="1" parent="NrHyhNAeNVvxgQB99qCo-249" source="NrHyhNAeNVvxgQB99qCo-223" target="NrHyhNAeNVvxgQB99qCo-219">
          <mxGeometry relative="1" as="geometry" />
        </mxCell>
        <mxCell id="NrHyhNAeNVvxgQB99qCo-251" value="" style="group" vertex="1" connectable="0" parent="1">
          <mxGeometry x="24" y="1265" width="831" height="297" as="geometry" />
        </mxCell>
        <mxCell id="NrHyhNAeNVvxgQB99qCo-186" value="" style="rounded=0;whiteSpace=wrap;html=1;strokeWidth=2;strokeColor=#FF9933;" vertex="1" parent="NrHyhNAeNVvxgQB99qCo-251">
          <mxGeometry x="705" width="126" height="297" as="geometry" />
        </mxCell>
        <mxCell id="NrHyhNAeNVvxgQB99qCo-156" value="问答prompt" style="whiteSpace=wrap;align=center;verticalAlign=middle;fontStyle=1;strokeWidth=3;fillColor=#FFFFCC;direction=east;" vertex="1" parent="NrHyhNAeNVvxgQB99qCo-251">
          <mxGeometry y="21" width="90" height="60" as="geometry" />
        </mxCell>
        <mxCell id="NrHyhNAeNVvxgQB99qCo-157" value="Sug prompt" style="whiteSpace=wrap;align=center;verticalAlign=middle;fontStyle=1;strokeWidth=3;fillColor=#FFFFCC;direction=east;" vertex="1" parent="NrHyhNAeNVvxgQB99qCo-251">
          <mxGeometry y="217" width="90" height="60" as="geometry" />
        </mxCell>
        <mxCell id="NrHyhNAeNVvxgQB99qCo-158" value="minimax nmq" style="ellipse;whiteSpace=wrap;html=1;aspect=fixed;fillColor=#f8cecc;strokeColor=#b85450;" vertex="1" parent="NrHyhNAeNVvxgQB99qCo-251">
          <mxGeometry x="289.5" y="213" width="67" height="67" as="geometry" />
        </mxCell>
        <mxCell id="NrHyhNAeNVvxgQB99qCo-164" style="edgeStyle=orthogonalEdgeStyle;rounded=0;orthogonalLoop=1;jettySize=auto;html=1;exitX=1;exitY=0.5;exitDx=0;exitDy=0;entryX=0;entryY=0.5;entryDx=0;entryDy=0;" edge="1" parent="NrHyhNAeNVvxgQB99qCo-251" source="NrHyhNAeNVvxgQB99qCo-157" target="NrHyhNAeNVvxgQB99qCo-158">
          <mxGeometry relative="1" as="geometry" />
        </mxCell>
        <mxCell id="NrHyhNAeNVvxgQB99qCo-159" value="文心nmq" style="ellipse;whiteSpace=wrap;html=1;aspect=fixed;fillColor=#f8cecc;strokeColor=#b85450;" vertex="1" parent="NrHyhNAeNVvxgQB99qCo-251">
          <mxGeometry x="289.5" y="17" width="67" height="67" as="geometry" />
        </mxCell>
        <mxCell id="NrHyhNAeNVvxgQB99qCo-162" style="edgeStyle=orthogonalEdgeStyle;rounded=0;orthogonalLoop=1;jettySize=auto;html=1;exitX=1;exitY=0.5;exitDx=0;exitDy=0;entryX=0;entryY=0.5;entryDx=0;entryDy=0;" edge="1" parent="NrHyhNAeNVvxgQB99qCo-251" source="NrHyhNAeNVvxgQB99qCo-160" target="NrHyhNAeNVvxgQB99qCo-159">
          <mxGeometry relative="1" as="geometry" />
        </mxCell>
        <mxCell id="NrHyhNAeNVvxgQB99qCo-163" style="edgeStyle=orthogonalEdgeStyle;rounded=0;orthogonalLoop=1;jettySize=auto;html=1;exitX=1;exitY=0.75;exitDx=0;exitDy=0;entryX=0;entryY=0;entryDx=0;entryDy=0;" edge="1" parent="NrHyhNAeNVvxgQB99qCo-251" source="NrHyhNAeNVvxgQB99qCo-160" target="NrHyhNAeNVvxgQB99qCo-158">
          <mxGeometry relative="1" as="geometry">
            <Array as="points">
              <mxPoint x="258" y="66" />
              <mxPoint x="258" y="223" />
            </Array>
          </mxGeometry>
        </mxCell>
        <mxCell id="NrHyhNAeNVvxgQB99qCo-160" value="意图识别" style="whiteSpace=wrap;align=center;verticalAlign=middle;fontStyle=1;strokeWidth=3;fillColor=#FFFFCC;direction=east;" vertex="1" parent="NrHyhNAeNVvxgQB99qCo-251">
          <mxGeometry x="127.5" y="21" width="90" height="60" as="geometry" />
        </mxCell>
        <mxCell id="NrHyhNAeNVvxgQB99qCo-161" style="edgeStyle=orthogonalEdgeStyle;rounded=0;orthogonalLoop=1;jettySize=auto;html=1;exitX=1;exitY=0.5;exitDx=0;exitDy=0;" edge="1" parent="NrHyhNAeNVvxgQB99qCo-251" source="NrHyhNAeNVvxgQB99qCo-156" target="NrHyhNAeNVvxgQB99qCo-160">
          <mxGeometry relative="1" as="geometry" />
        </mxCell>
        <mxCell id="NrHyhNAeNVvxgQB99qCo-165" value="答案callback" style="whiteSpace=wrap;align=center;verticalAlign=middle;fontStyle=1;strokeWidth=3;fillColor=#FFFFCC;direction=east;" vertex="1" parent="NrHyhNAeNVvxgQB99qCo-251">
          <mxGeometry x="391" y="20.5" width="90" height="60" as="geometry" />
        </mxCell>
        <mxCell id="NrHyhNAeNVvxgQB99qCo-188" style="edgeStyle=orthogonalEdgeStyle;rounded=0;orthogonalLoop=1;jettySize=auto;html=1;exitX=1;exitY=0;exitDx=0;exitDy=0;entryX=0;entryY=0.75;entryDx=0;entryDy=0;" edge="1" parent="NrHyhNAeNVvxgQB99qCo-251" source="NrHyhNAeNVvxgQB99qCo-158" target="NrHyhNAeNVvxgQB99qCo-165">
          <mxGeometry relative="1" as="geometry">
            <Array as="points">
              <mxPoint x="371" y="223" />
              <mxPoint x="371" y="66" />
            </Array>
          </mxGeometry>
        </mxCell>
        <mxCell id="NrHyhNAeNVvxgQB99qCo-167" style="edgeStyle=orthogonalEdgeStyle;rounded=0;orthogonalLoop=1;jettySize=auto;html=1;exitX=1;exitY=0.5;exitDx=0;exitDy=0;entryX=0;entryY=0.5;entryDx=0;entryDy=0;" edge="1" parent="NrHyhNAeNVvxgQB99qCo-251" source="NrHyhNAeNVvxgQB99qCo-159" target="NrHyhNAeNVvxgQB99qCo-165">
          <mxGeometry relative="1" as="geometry" />
        </mxCell>
        <mxCell id="NrHyhNAeNVvxgQB99qCo-166" value="Sug callback" style="whiteSpace=wrap;align=center;verticalAlign=middle;fontStyle=1;strokeWidth=3;fillColor=#FFFFCC;direction=east;" vertex="1" parent="NrHyhNAeNVvxgQB99qCo-251">
          <mxGeometry x="391" y="217" width="90" height="60" as="geometry" />
        </mxCell>
        <mxCell id="NrHyhNAeNVvxgQB99qCo-168" style="edgeStyle=orthogonalEdgeStyle;rounded=0;orthogonalLoop=1;jettySize=auto;html=1;exitX=1;exitY=0.5;exitDx=0;exitDy=0;entryX=0;entryY=0.5;entryDx=0;entryDy=0;" edge="1" parent="NrHyhNAeNVvxgQB99qCo-251" source="NrHyhNAeNVvxgQB99qCo-158" target="NrHyhNAeNVvxgQB99qCo-166">
          <mxGeometry relative="1" as="geometry" />
        </mxCell>
        <mxCell id="NrHyhNAeNVvxgQB99qCo-169" value="redis" style="shape=cylinder3;whiteSpace=wrap;html=1;boundedLbl=1;backgroundOutline=1;size=15;" vertex="1" parent="NrHyhNAeNVvxgQB99qCo-251">
          <mxGeometry x="406" y="108.5" width="60" height="80" as="geometry" />
        </mxCell>
        <mxCell id="NrHyhNAeNVvxgQB99qCo-172" style="edgeStyle=orthogonalEdgeStyle;rounded=0;orthogonalLoop=1;jettySize=auto;html=1;exitX=0.5;exitY=1;exitDx=0;exitDy=0;" edge="1" parent="NrHyhNAeNVvxgQB99qCo-251" source="NrHyhNAeNVvxgQB99qCo-165" target="NrHyhNAeNVvxgQB99qCo-169">
          <mxGeometry relative="1" as="geometry" />
        </mxCell>
        <mxCell id="NrHyhNAeNVvxgQB99qCo-173" style="edgeStyle=orthogonalEdgeStyle;rounded=0;orthogonalLoop=1;jettySize=auto;html=1;exitX=0.5;exitY=0;exitDx=0;exitDy=0;entryX=0.5;entryY=1;entryDx=0;entryDy=0;entryPerimeter=0;" edge="1" parent="NrHyhNAeNVvxgQB99qCo-251" source="NrHyhNAeNVvxgQB99qCo-166" target="NrHyhNAeNVvxgQB99qCo-169">
          <mxGeometry relative="1" as="geometry" />
        </mxCell>
        <mxCell id="NrHyhNAeNVvxgQB99qCo-174" value="发送消息（答案+Sug）" style="whiteSpace=wrap;align=center;verticalAlign=middle;fontStyle=1;strokeWidth=3;fillColor=#FFFFCC;direction=east;" vertex="1" parent="NrHyhNAeNVvxgQB99qCo-251">
          <mxGeometry x="723" y="20.5" width="90" height="60" as="geometry" />
        </mxCell>
        <mxCell id="NrHyhNAeNVvxgQB99qCo-177" style="edgeStyle=orthogonalEdgeStyle;rounded=0;orthogonalLoop=1;jettySize=auto;html=1;exitX=1;exitY=0.5;exitDx=0;exitDy=0;entryX=0;entryY=0.5;entryDx=0;entryDy=0;" edge="1" parent="NrHyhNAeNVvxgQB99qCo-251" source="NrHyhNAeNVvxgQB99qCo-176" target="NrHyhNAeNVvxgQB99qCo-174">
          <mxGeometry relative="1" as="geometry" />
        </mxCell>
        <mxCell id="NrHyhNAeNVvxgQB99qCo-176" value="答案+Sug ready" style="rhombus;whiteSpace=wrap;html=1;" vertex="1" parent="NrHyhNAeNVvxgQB99qCo-251">
          <mxGeometry x="543" y="10.5" width="139" height="80" as="geometry" />
        </mxCell>
        <mxCell id="NrHyhNAeNVvxgQB99qCo-178" style="edgeStyle=orthogonalEdgeStyle;rounded=0;orthogonalLoop=1;jettySize=auto;html=1;exitX=1;exitY=0.5;exitDx=0;exitDy=0;entryX=0;entryY=0.5;entryDx=0;entryDy=0;" edge="1" parent="NrHyhNAeNVvxgQB99qCo-251" source="NrHyhNAeNVvxgQB99qCo-165" target="NrHyhNAeNVvxgQB99qCo-176">
          <mxGeometry relative="1" as="geometry" />
        </mxCell>
        <mxCell id="NrHyhNAeNVvxgQB99qCo-175" style="edgeStyle=orthogonalEdgeStyle;rounded=0;orthogonalLoop=1;jettySize=auto;html=1;exitX=1;exitY=0;exitDx=0;exitDy=27.5;exitPerimeter=0;entryX=0;entryY=0.5;entryDx=0;entryDy=0;" edge="1" parent="NrHyhNAeNVvxgQB99qCo-251" source="NrHyhNAeNVvxgQB99qCo-169" target="NrHyhNAeNVvxgQB99qCo-176">
          <mxGeometry relative="1" as="geometry" />
        </mxCell>
        <mxCell id="NrHyhNAeNVvxgQB99qCo-180" value="答案+Sug ready" style="rhombus;whiteSpace=wrap;html=1;" vertex="1" parent="NrHyhNAeNVvxgQB99qCo-251">
          <mxGeometry x="543" y="206.5" width="139" height="80" as="geometry" />
        </mxCell>
        <mxCell id="NrHyhNAeNVvxgQB99qCo-179" style="edgeStyle=orthogonalEdgeStyle;rounded=0;orthogonalLoop=1;jettySize=auto;html=1;exitX=1;exitY=0.5;exitDx=0;exitDy=0;entryX=0;entryY=0.5;entryDx=0;entryDy=0;" edge="1" parent="NrHyhNAeNVvxgQB99qCo-251" source="NrHyhNAeNVvxgQB99qCo-166" target="NrHyhNAeNVvxgQB99qCo-180">
          <mxGeometry relative="1" as="geometry" />
        </mxCell>
        <mxCell id="NrHyhNAeNVvxgQB99qCo-181" style="edgeStyle=orthogonalEdgeStyle;rounded=0;orthogonalLoop=1;jettySize=auto;html=1;exitX=1;exitY=1;exitDx=0;exitDy=-15;exitPerimeter=0;entryX=0;entryY=0.5;entryDx=0;entryDy=0;" edge="1" parent="NrHyhNAeNVvxgQB99qCo-251" source="NrHyhNAeNVvxgQB99qCo-169" target="NrHyhNAeNVvxgQB99qCo-180">
          <mxGeometry relative="1" as="geometry" />
        </mxCell>
        <mxCell id="NrHyhNAeNVvxgQB99qCo-182" value="发送消息（答案+Sug）" style="whiteSpace=wrap;align=center;verticalAlign=middle;fontStyle=1;strokeWidth=3;fillColor=#FFFFCC;direction=east;" vertex="1" parent="NrHyhNAeNVvxgQB99qCo-251">
          <mxGeometry x="719" y="216.5" width="90" height="60" as="geometry" />
        </mxCell>
        <mxCell id="NrHyhNAeNVvxgQB99qCo-183" style="edgeStyle=orthogonalEdgeStyle;rounded=0;orthogonalLoop=1;jettySize=auto;html=1;exitX=1;exitY=0.5;exitDx=0;exitDy=0;entryX=0;entryY=0.5;entryDx=0;entryDy=0;" edge="1" parent="NrHyhNAeNVvxgQB99qCo-251" source="NrHyhNAeNVvxgQB99qCo-180" target="NrHyhNAeNVvxgQB99qCo-182">
          <mxGeometry relative="1" as="geometry" />
        </mxCell>
        <mxCell id="NrHyhNAeNVvxgQB99qCo-184" value="Y" style="text;spacingTop=-5;align=center" vertex="1" parent="NrHyhNAeNVvxgQB99qCo-251">
          <mxGeometry x="679" y="27" width="30" height="20" as="geometry" />
        </mxCell>
        <mxCell id="NrHyhNAeNVvxgQB99qCo-185" value="Y" style="text;spacingTop=-5;align=center" vertex="1" parent="NrHyhNAeNVvxgQB99qCo-251">
          <mxGeometry x="679" y="222" width="30" height="20" as="geometry" />
        </mxCell>
        <mxCell id="NrHyhNAeNVvxgQB99qCo-187" value="Lock 互斥" style="text;spacingTop=-5;align=center" vertex="1" parent="NrHyhNAeNVvxgQB99qCo-251">
          <mxGeometry x="753" y="134" width="30" height="20" as="geometry" />
        </mxCell>
        <mxCell id="NrHyhNAeNVvxgQB99qCo-190" value="End" style="ellipse;whiteSpace=wrap;html=1;aspect=fixed;" vertex="1" parent="NrHyhNAeNVvxgQB99qCo-251">
          <mxGeometry x="589.5" y="129" width="46" height="46" as="geometry" />
        </mxCell>
        <mxCell id="NrHyhNAeNVvxgQB99qCo-193" style="edgeStyle=orthogonalEdgeStyle;rounded=0;orthogonalLoop=1;jettySize=auto;html=1;exitX=0.5;exitY=1;exitDx=0;exitDy=0;entryX=0.5;entryY=0;entryDx=0;entryDy=0;" edge="1" parent="NrHyhNAeNVvxgQB99qCo-251" source="NrHyhNAeNVvxgQB99qCo-174" target="NrHyhNAeNVvxgQB99qCo-190">
          <mxGeometry relative="1" as="geometry" />
        </mxCell>
        <mxCell id="NrHyhNAeNVvxgQB99qCo-191" style="edgeStyle=orthogonalEdgeStyle;rounded=0;orthogonalLoop=1;jettySize=auto;html=1;exitX=0.5;exitY=1;exitDx=0;exitDy=0;entryX=0.5;entryY=0;entryDx=0;entryDy=0;" edge="1" parent="NrHyhNAeNVvxgQB99qCo-251" source="NrHyhNAeNVvxgQB99qCo-176" target="NrHyhNAeNVvxgQB99qCo-190">
          <mxGeometry relative="1" as="geometry" />
        </mxCell>
        <mxCell id="NrHyhNAeNVvxgQB99qCo-192" style="edgeStyle=orthogonalEdgeStyle;rounded=0;orthogonalLoop=1;jettySize=auto;html=1;exitX=0.5;exitY=0;exitDx=0;exitDy=0;entryX=0.5;entryY=1;entryDx=0;entryDy=0;" edge="1" parent="NrHyhNAeNVvxgQB99qCo-251" source="NrHyhNAeNVvxgQB99qCo-180" target="NrHyhNAeNVvxgQB99qCo-190">
          <mxGeometry relative="1" as="geometry" />
        </mxCell>
        <mxCell id="NrHyhNAeNVvxgQB99qCo-195" value="N" style="text;spacingTop=-5;align=center" vertex="1" parent="NrHyhNAeNVvxgQB99qCo-251">
          <mxGeometry x="565.5" y="96" width="30" height="20" as="geometry" />
        </mxCell>
        <mxCell id="NrHyhNAeNVvxgQB99qCo-196" value="N" style="text;spacingTop=-5;align=center" vertex="1" parent="NrHyhNAeNVvxgQB99qCo-251">
          <mxGeometry x="564.5" y="181" width="30" height="20" as="geometry" />
        </mxCell>
        <mxCell id="NrHyhNAeNVvxgQB99qCo-194" style="edgeStyle=orthogonalEdgeStyle;rounded=0;orthogonalLoop=1;jettySize=auto;html=1;exitX=0.5;exitY=0;exitDx=0;exitDy=0;entryX=0.5;entryY=1;entryDx=0;entryDy=0;" edge="1" parent="NrHyhNAeNVvxgQB99qCo-251" source="NrHyhNAeNVvxgQB99qCo-182" target="NrHyhNAeNVvxgQB99qCo-190">
          <mxGeometry relative="1" as="geometry" />
        </mxCell>
        <mxCell id="NrHyhNAeNVvxgQB99qCo-256" value="" style="group" vertex="1" connectable="0" parent="1">
          <mxGeometry x="1084" y="855" width="103" height="52" as="geometry" />
        </mxCell>
        <mxCell id="NrHyhNAeNVvxgQB99qCo-253" value="RS" style="rounded=0;whiteSpace=wrap;html=1;fillColor=#008a00;strokeColor=#005700;fontColor=#ffffff;" vertex="1" parent="NrHyhNAeNVvxgQB99qCo-256">
          <mxGeometry x="16" width="87" height="38" as="geometry" />
        </mxCell>
        <mxCell id="NrHyhNAeNVvxgQB99qCo-254" value="RS" style="rounded=0;whiteSpace=wrap;html=1;fillColor=#008a00;strokeColor=#005700;fontColor=#ffffff;" vertex="1" parent="NrHyhNAeNVvxgQB99qCo-256">
          <mxGeometry x="9" y="6" width="87" height="38" as="geometry" />
        </mxCell>
        <mxCell id="NrHyhNAeNVvxgQB99qCo-255" value="nginx" style="rounded=0;whiteSpace=wrap;html=1;fillColor=#008a00;strokeColor=#005700;fontColor=#ffffff;" vertex="1" parent="NrHyhNAeNVvxgQB99qCo-256">
          <mxGeometry y="14" width="87" height="38" as="geometry" />
        </mxCell>
        <mxCell id="NrHyhNAeNVvxgQB99qCo-257" style="rounded=0;orthogonalLoop=1;jettySize=auto;html=1;exitX=0.5;exitY=1;exitDx=0;exitDy=0;entryX=0.5;entryY=0;entryDx=0;entryDy=0;" edge="1" parent="1" source="NrHyhNAeNVvxgQB99qCo-255" target="NrHyhNAeNVvxgQB99qCo-243">
          <mxGeometry relative="1" as="geometry">
            <mxPoint x="1118" y="972" as="targetPoint" />
          </mxGeometry>
        </mxCell>
        <mxCell id="NrHyhNAeNVvxgQB99qCo-248" style="rounded=0;orthogonalLoop=1;jettySize=auto;html=1;exitX=0.5;exitY=1;exitDx=0;exitDy=0;entryX=0.5;entryY=0;entryDx=0;entryDy=0;" edge="1" parent="1" source="NrHyhNAeNVvxgQB99qCo-247" target="NrHyhNAeNVvxgQB99qCo-255">
          <mxGeometry relative="1" as="geometry">
            <mxPoint x="1138" y="869" as="targetPoint" />
          </mxGeometry>
        </mxCell>
        <mxCell id="NrHyhNAeNVvxgQB99qCo-197" value="" style="rounded=0;whiteSpace=wrap;html=1;strokeColor=#FF0000;strokeWidth=2;" vertex="1" parent="1">
          <mxGeometry x="10" y="153" width="153" height="194" as="geometry" />
        </mxCell>
        <mxCell id="NrHyhNAeNVvxgQB99qCo-154" value="" style="rounded=0;whiteSpace=wrap;html=1;strokeColor=#FF0000;strokeWidth=2;" vertex="1" parent="1">
          <mxGeometry x="571" y="461" width="162.5" height="114" as="geometry" />
        </mxCell>
        <mxCell id="3" value="消息中台" style="whiteSpace=wrap;align=center;verticalAlign=middle;fontStyle=1;strokeWidth=3;fillColor=#d5e8d4;strokeColor=#82b366;" parent="1" vertex="1">
          <mxGeometry x="40.5" y="174" width="90" height="60" as="geometry" />
        </mxCell>
        <mxCell id="4" value="端sdk发消息" style="whiteSpace=wrap;align=center;verticalAlign=middle;fontStyle=1;strokeWidth=3;fillColor=#dae8fc;strokeColor=#6c8ebf;" parent="1" vertex="1">
          <mxGeometry x="41.5" y="76" width="90" height="60" as="geometry" />
        </mxCell>
        <mxCell id="36" value="" style="edgeStyle=none;noEdgeStyle=1;strokeColor=#990000;strokeWidth=2;" parent="1" source="3" target="NrHyhNAeNVvxgQB99qCo-100" edge="1">
          <mxGeometry width="100" height="100" relative="1" as="geometry">
            <mxPoint x="82.5" y="250" as="sourcePoint" />
            <mxPoint x="259.5" y="274" as="targetPoint" />
          </mxGeometry>
        </mxCell>
        <mxCell id="37" value="" style="edgeStyle=none;noEdgeStyle=1;strokeColor=#990000;strokeWidth=2" parent="1" source="4" target="3" edge="1">
          <mxGeometry width="100" height="100" relative="1" as="geometry">
            <mxPoint x="-45.5" y="188" as="sourcePoint" />
            <mxPoint x="54.5" y="88" as="targetPoint" />
          </mxGeometry>
        </mxCell>
        <mxCell id="52" value="N" style="text;spacingTop=-5;align=center" parent="1" vertex="1">
          <mxGeometry x="166.5" y="498" width="30" height="20" as="geometry" />
        </mxCell>
        <mxCell id="NrHyhNAeNVvxgQB99qCo-100" value="消息回调tbopen" style="whiteSpace=wrap;align=center;verticalAlign=middle;fontStyle=1;strokeWidth=3;fillColor=#FFFFCC" vertex="1" parent="1">
          <mxGeometry x="30.5" y="274" width="110" height="60" as="geometry" />
        </mxCell>
        <mxCell id="NrHyhNAeNVvxgQB99qCo-102" value="nmq&#xa;dealUserToSpriteMsg" style="whiteSpace=wrap;align=center;verticalAlign=middle;fontStyle=1;strokeWidth=3;fillColor=#FFFFCC" vertex="1" parent="1">
          <mxGeometry x="20" y="375" width="131" height="60" as="geometry" />
        </mxCell>
        <mxCell id="NrHyhNAeNVvxgQB99qCo-103" value="" style="strokeColor=#990000;strokeWidth=2;" edge="1" parent="1" source="NrHyhNAeNVvxgQB99qCo-100" target="NrHyhNAeNVvxgQB99qCo-102">
          <mxGeometry width="100" height="100" relative="1" as="geometry">
            <mxPoint x="94.5" y="228" as="sourcePoint" />
            <mxPoint x="91.5" y="301" as="targetPoint" />
          </mxGeometry>
        </mxCell>
        <mxCell id="NrHyhNAeNVvxgQB99qCo-105" value="redis添加黑名单" style="whiteSpace=wrap;align=center;verticalAlign=middle;fontStyle=1;strokeWidth=3;fillColor=#FFFFCC;direction=west;" vertex="1" parent="1">
          <mxGeometry x="40.5" y="601" width="90" height="60" as="geometry" />
        </mxCell>
        <mxCell id="NrHyhNAeNVvxgQB99qCo-107" value="" style="strokeColor=#990000;strokeWidth=2;entryX=0.5;entryY=0;entryDx=0;entryDy=0;" edge="1" parent="1" source="NrHyhNAeNVvxgQB99qCo-102" target="NrHyhNAeNVvxgQB99qCo-108">
          <mxGeometry width="100" height="100" relative="1" as="geometry">
            <mxPoint x="48.5" y="495" as="sourcePoint" />
            <mxPoint x="106.5" y="424" as="targetPoint" />
          </mxGeometry>
        </mxCell>
        <mxCell id="NrHyhNAeNVvxgQB99qCo-108" value="命中关闭消息" style="rhombus;whiteSpace=wrap;html=1;" vertex="1" parent="1">
          <mxGeometry x="16" y="480" width="139" height="80" as="geometry" />
        </mxCell>
        <mxCell id="NrHyhNAeNVvxgQB99qCo-109" value="" style="strokeColor=#990000;strokeWidth=2;exitX=0.5;exitY=1;exitDx=0;exitDy=0;" edge="1" parent="1" source="NrHyhNAeNVvxgQB99qCo-108" target="NrHyhNAeNVvxgQB99qCo-105">
          <mxGeometry width="100" height="100" relative="1" as="geometry">
            <mxPoint x="104.5" y="484" as="sourcePoint" />
            <mxPoint x="100.5" y="533" as="targetPoint" />
          </mxGeometry>
        </mxCell>
        <mxCell id="NrHyhNAeNVvxgQB99qCo-110" value="发送关闭消息" style="whiteSpace=wrap;align=center;verticalAlign=middle;fontStyle=1;strokeWidth=3;fillColor=#FFFFCC;direction=east;" vertex="1" parent="1">
          <mxGeometry x="240" y="598" width="90" height="60" as="geometry" />
        </mxCell>
        <mxCell id="NrHyhNAeNVvxgQB99qCo-111" value="" style="strokeColor=#990000;strokeWidth=2;exitX=1;exitY=0.5;exitDx=0;exitDy=0;entryX=0;entryY=0.5;entryDx=0;entryDy=0;" edge="1" parent="1" source="NrHyhNAeNVvxgQB99qCo-108" target="NrHyhNAeNVvxgQB99qCo-116">
          <mxGeometry width="100" height="100" relative="1" as="geometry">
            <mxPoint x="100.5" y="613" as="sourcePoint" />
            <mxPoint x="98.5" y="650" as="targetPoint" />
          </mxGeometry>
        </mxCell>
        <mxCell id="NrHyhNAeNVvxgQB99qCo-112" value="End" style="ellipse;whiteSpace=wrap;html=1;aspect=fixed;" vertex="1" parent="1">
          <mxGeometry x="58.5" y="777" width="46" height="46" as="geometry" />
        </mxCell>
        <mxCell id="NrHyhNAeNVvxgQB99qCo-113" value="" style="strokeColor=#990000;strokeWidth=2;" edge="1" parent="1" source="NrHyhNAeNVvxgQB99qCo-105" target="NrHyhNAeNVvxgQB99qCo-114">
          <mxGeometry width="100" height="100" relative="1" as="geometry">
            <mxPoint x="169.5" y="573" as="sourcePoint" />
            <mxPoint x="246.5" y="574" as="targetPoint" />
          </mxGeometry>
        </mxCell>
        <mxCell id="NrHyhNAeNVvxgQB99qCo-114" value="发消息『暂时离开』" style="whiteSpace=wrap;align=center;verticalAlign=middle;fontStyle=1;strokeWidth=3;fillColor=#FFFFCC;direction=west;" vertex="1" parent="1">
          <mxGeometry x="38.5" y="689" width="90" height="60" as="geometry" />
        </mxCell>
        <mxCell id="NrHyhNAeNVvxgQB99qCo-115" value="" style="strokeColor=#990000;strokeWidth=2;" edge="1" parent="1" source="NrHyhNAeNVvxgQB99qCo-114" target="NrHyhNAeNVvxgQB99qCo-112">
          <mxGeometry width="100" height="100" relative="1" as="geometry">
            <mxPoint x="52.5" y="695" as="sourcePoint" />
            <mxPoint x="-72.5" y="737" as="targetPoint" />
          </mxGeometry>
        </mxCell>
        <mxCell id="NrHyhNAeNVvxgQB99qCo-116" value="命中关闭消息关键词" style="rhombus;whiteSpace=wrap;html=1;" vertex="1" parent="1">
          <mxGeometry x="215.5" y="480" width="139" height="80" as="geometry" />
        </mxCell>
        <mxCell id="NrHyhNAeNVvxgQB99qCo-117" value="" style="strokeColor=#990000;strokeWidth=2;exitX=0.5;exitY=1;exitDx=0;exitDy=0;" edge="1" parent="1" source="NrHyhNAeNVvxgQB99qCo-116" target="NrHyhNAeNVvxgQB99qCo-110">
          <mxGeometry width="100" height="100" relative="1" as="geometry">
            <mxPoint x="79.5" y="613" as="sourcePoint" />
            <mxPoint x="77.5" y="650" as="targetPoint" />
          </mxGeometry>
        </mxCell>
        <mxCell id="NrHyhNAeNVvxgQB99qCo-118" value="发送预设答案消息" style="whiteSpace=wrap;align=center;verticalAlign=middle;fontStyle=1;strokeWidth=3;fillColor=#FFFFCC;direction=east;" vertex="1" parent="1">
          <mxGeometry x="434.5" y="598" width="90" height="60" as="geometry" />
        </mxCell>
        <mxCell id="NrHyhNAeNVvxgQB99qCo-119" value="" style="strokeColor=#990000;strokeWidth=2;entryX=0;entryY=0.5;entryDx=0;entryDy=0;exitX=1;exitY=0.5;exitDx=0;exitDy=0;" edge="1" parent="1" target="NrHyhNAeNVvxgQB99qCo-120" source="NrHyhNAeNVvxgQB99qCo-116">
          <mxGeometry width="100" height="100" relative="1" as="geometry">
            <mxPoint x="447.5" y="503" as="sourcePoint" />
            <mxPoint x="323.5" y="650" as="targetPoint" />
          </mxGeometry>
        </mxCell>
        <mxCell id="NrHyhNAeNVvxgQB99qCo-120" value="有预设答案" style="rhombus;whiteSpace=wrap;html=1;" vertex="1" parent="1">
          <mxGeometry x="411.5" y="480" width="139" height="80" as="geometry" />
        </mxCell>
        <mxCell id="NrHyhNAeNVvxgQB99qCo-121" value="" style="strokeColor=#990000;strokeWidth=2;exitX=0.5;exitY=1;exitDx=0;exitDy=0;" edge="1" parent="1" source="NrHyhNAeNVvxgQB99qCo-120" target="NrHyhNAeNVvxgQB99qCo-118">
          <mxGeometry width="100" height="100" relative="1" as="geometry">
            <mxPoint x="271.5" y="613" as="sourcePoint" />
            <mxPoint x="269.5" y="650" as="targetPoint" />
          </mxGeometry>
        </mxCell>
        <mxCell id="NrHyhNAeNVvxgQB99qCo-123" value="nmq请求文心" style="whiteSpace=wrap;align=center;verticalAlign=middle;fontStyle=1;strokeWidth=3;fillColor=#FFFFCC;direction=east;" vertex="1" parent="1">
          <mxGeometry x="605.5" y="490" width="90" height="60" as="geometry" />
        </mxCell>
        <mxCell id="NrHyhNAeNVvxgQB99qCo-124" style="edgeStyle=orthogonalEdgeStyle;rounded=0;orthogonalLoop=1;jettySize=auto;html=1;exitX=1;exitY=0.5;exitDx=0;exitDy=0;entryX=0;entryY=0.5;entryDx=0;entryDy=0;" edge="1" parent="1" source="NrHyhNAeNVvxgQB99qCo-120" target="NrHyhNAeNVvxgQB99qCo-123">
          <mxGeometry relative="1" as="geometry" />
        </mxCell>
        <mxCell id="NrHyhNAeNVvxgQB99qCo-125" value="N" style="text;spacingTop=-5;align=center" vertex="1" parent="1">
          <mxGeometry x="364.5" y="501" width="30" height="20" as="geometry" />
        </mxCell>
        <mxCell id="NrHyhNAeNVvxgQB99qCo-126" value="N" style="text;spacingTop=-5;align=center" vertex="1" parent="1">
          <mxGeometry x="558.5" y="501" width="30" height="20" as="geometry" />
        </mxCell>
        <mxCell id="NrHyhNAeNVvxgQB99qCo-127" value="Y" style="text;spacingTop=-5;align=center" vertex="1" parent="1">
          <mxGeometry x="85.5" y="563" width="30" height="20" as="geometry" />
        </mxCell>
        <mxCell id="NrHyhNAeNVvxgQB99qCo-128" value="Y" style="text;spacingTop=-5;align=center" vertex="1" parent="1">
          <mxGeometry x="283.5" y="563" width="30" height="20" as="geometry" />
        </mxCell>
        <mxCell id="NrHyhNAeNVvxgQB99qCo-129" value="Y" style="text;spacingTop=-5;align=center" vertex="1" parent="1">
          <mxGeometry x="479.5" y="563" width="30" height="20" as="geometry" />
        </mxCell>
        <mxCell id="NrHyhNAeNVvxgQB99qCo-130" value="文心回调sendSpriteMsg" style="whiteSpace=wrap;align=center;verticalAlign=middle;fontStyle=1;strokeWidth=3;fillColor=#FFFFCC;direction=east;" vertex="1" parent="1">
          <mxGeometry x="605.5" y="601" width="90" height="60" as="geometry" />
        </mxCell>
        <mxCell id="NrHyhNAeNVvxgQB99qCo-131" style="edgeStyle=orthogonalEdgeStyle;rounded=0;orthogonalLoop=1;jettySize=auto;html=1;exitX=0.5;exitY=1;exitDx=0;exitDy=0;entryX=0.5;entryY=0;entryDx=0;entryDy=0;" edge="1" parent="1" source="NrHyhNAeNVvxgQB99qCo-123" target="NrHyhNAeNVvxgQB99qCo-130">
          <mxGeometry relative="1" as="geometry" />
        </mxCell>
        <mxCell id="NrHyhNAeNVvxgQB99qCo-132" value="停止发言" style="whiteSpace=wrap;align=center;verticalAlign=middle;fontStyle=1;strokeWidth=3;fillColor=#FFFFCC" vertex="1" parent="1">
          <mxGeometry x="486.5" y="176" width="110" height="60" as="geometry" />
        </mxCell>
        <mxCell id="NrHyhNAeNVvxgQB99qCo-133" style="edgeStyle=orthogonalEdgeStyle;rounded=0;orthogonalLoop=1;jettySize=auto;html=1;exitX=1;exitY=0.5;exitDx=0;exitDy=0;entryX=0.5;entryY=0;entryDx=0;entryDy=0;" edge="1" parent="1" source="4" target="NrHyhNAeNVvxgQB99qCo-132">
          <mxGeometry relative="1" as="geometry" />
        </mxCell>
        <mxCell id="NrHyhNAeNVvxgQB99qCo-134" value="uid和msgkey存redis（30s）" style="whiteSpace=wrap;align=center;verticalAlign=middle;fontStyle=1;strokeWidth=3;fillColor=#e1d5e7;strokeColor=#9673a6;" vertex="1" parent="1">
          <mxGeometry x="646.5" y="176" width="110" height="60" as="geometry" />
        </mxCell>
        <mxCell id="NrHyhNAeNVvxgQB99qCo-135" style="edgeStyle=orthogonalEdgeStyle;rounded=0;orthogonalLoop=1;jettySize=auto;html=1;exitX=1;exitY=0.5;exitDx=0;exitDy=0;" edge="1" parent="1" source="NrHyhNAeNVvxgQB99qCo-132" target="NrHyhNAeNVvxgQB99qCo-134">
          <mxGeometry relative="1" as="geometry" />
        </mxCell>
        <mxCell id="NrHyhNAeNVvxgQB99qCo-136" value="是否停止回答" style="rhombus;whiteSpace=wrap;html=1;" vertex="1" parent="1">
          <mxGeometry x="581" y="697" width="139" height="80" as="geometry" />
        </mxCell>
        <mxCell id="NrHyhNAeNVvxgQB99qCo-137" style="edgeStyle=orthogonalEdgeStyle;rounded=0;orthogonalLoop=1;jettySize=auto;html=1;exitX=0.5;exitY=1;exitDx=0;exitDy=0;" edge="1" parent="1" source="NrHyhNAeNVvxgQB99qCo-130" target="NrHyhNAeNVvxgQB99qCo-136">
          <mxGeometry relative="1" as="geometry" />
        </mxCell>
        <mxCell id="NrHyhNAeNVvxgQB99qCo-139" value="发送文心返回消息" style="whiteSpace=wrap;align=center;verticalAlign=middle;fontStyle=1;strokeWidth=3;fillColor=#FFFFCC;direction=east;" vertex="1" parent="1">
          <mxGeometry x="407.5" y="707" width="90" height="60" as="geometry" />
        </mxCell>
        <mxCell id="NrHyhNAeNVvxgQB99qCo-144" style="edgeStyle=orthogonalEdgeStyle;rounded=0;orthogonalLoop=1;jettySize=auto;html=1;exitX=0;exitY=0.5;exitDx=0;exitDy=0;entryX=1;entryY=0.5;entryDx=0;entryDy=0;" edge="1" parent="1" source="NrHyhNAeNVvxgQB99qCo-136" target="NrHyhNAeNVvxgQB99qCo-139">
          <mxGeometry relative="1" as="geometry" />
        </mxCell>
        <mxCell id="NrHyhNAeNVvxgQB99qCo-140" value="发送停止发言消息" style="whiteSpace=wrap;align=center;verticalAlign=middle;fontStyle=1;strokeWidth=3;fillColor=#FFFFCC" vertex="1" parent="1">
          <mxGeometry x="486.5" y="267" width="110" height="60" as="geometry" />
        </mxCell>
        <mxCell id="NrHyhNAeNVvxgQB99qCo-141" style="edgeStyle=orthogonalEdgeStyle;rounded=0;orthogonalLoop=1;jettySize=auto;html=1;exitX=0.5;exitY=1;exitDx=0;exitDy=0;entryX=0.5;entryY=0;entryDx=0;entryDy=0;" edge="1" parent="1" source="NrHyhNAeNVvxgQB99qCo-132" target="NrHyhNAeNVvxgQB99qCo-140">
          <mxGeometry relative="1" as="geometry" />
        </mxCell>
        <mxCell id="NrHyhNAeNVvxgQB99qCo-142" value="End" style="ellipse;whiteSpace=wrap;html=1;aspect=fixed;" vertex="1" parent="1">
          <mxGeometry x="518.5" y="366" width="46" height="46" as="geometry" />
        </mxCell>
        <mxCell id="NrHyhNAeNVvxgQB99qCo-143" value="" style="strokeColor=#990000;strokeWidth=2;exitX=0.5;exitY=1;exitDx=0;exitDy=0;" edge="1" parent="1" target="NrHyhNAeNVvxgQB99qCo-142" source="NrHyhNAeNVvxgQB99qCo-140">
          <mxGeometry width="100" height="100" relative="1" as="geometry">
            <mxPoint x="544.5" y="355" as="sourcePoint" />
            <mxPoint x="389.5" y="343" as="targetPoint" />
          </mxGeometry>
        </mxCell>
        <mxCell id="NrHyhNAeNVvxgQB99qCo-145" value="End" style="ellipse;whiteSpace=wrap;html=1;aspect=fixed;" vertex="1" parent="1">
          <mxGeometry x="627.5" y="823" width="46" height="46" as="geometry" />
        </mxCell>
        <mxCell id="NrHyhNAeNVvxgQB99qCo-147" style="edgeStyle=orthogonalEdgeStyle;rounded=0;orthogonalLoop=1;jettySize=auto;html=1;exitX=0.5;exitY=1;exitDx=0;exitDy=0;" edge="1" parent="1" source="NrHyhNAeNVvxgQB99qCo-136" target="NrHyhNAeNVvxgQB99qCo-145">
          <mxGeometry relative="1" as="geometry" />
        </mxCell>
        <mxCell id="NrHyhNAeNVvxgQB99qCo-148" style="edgeStyle=orthogonalEdgeStyle;rounded=0;orthogonalLoop=1;jettySize=auto;html=1;exitX=0.5;exitY=1;exitDx=0;exitDy=0;entryX=0.5;entryY=0;entryDx=0;entryDy=0;" edge="1" parent="1" source="NrHyhNAeNVvxgQB99qCo-139" target="NrHyhNAeNVvxgQB99qCo-145">
          <mxGeometry relative="1" as="geometry" />
        </mxCell>
        <mxCell id="NrHyhNAeNVvxgQB99qCo-149" value="N" style="text;spacingTop=-5;align=center" vertex="1" parent="1">
          <mxGeometry x="528.5" y="720" width="30" height="20" as="geometry" />
        </mxCell>
        <mxCell id="NrHyhNAeNVvxgQB99qCo-150" value="Y" style="text;spacingTop=-5;align=center" vertex="1" parent="1">
          <mxGeometry x="647.5" y="784" width="30" height="20" as="geometry" />
        </mxCell>
        <mxCell id="NrHyhNAeNVvxgQB99qCo-151" value="" style="endArrow=classic;html=1;rounded=0;strokeColor=#FF0000;strokeWidth=2;" edge="1" parent="1">
          <mxGeometry width="50" height="50" relative="1" as="geometry">
            <mxPoint x="416.5" y="405" as="sourcePoint" />
            <mxPoint x="568" y="460" as="targetPoint" />
          </mxGeometry>
        </mxCell>
        <mxCell id="NrHyhNAeNVvxgQB99qCo-152" value="请求时间长" style="text;spacingTop=-5;align=center;fontColor=#FF0000;" vertex="1" parent="1">
          <mxGeometry x="327.5" y="390" width="86" height="26" as="geometry" />
        </mxCell>
        <mxCell id="NrHyhNAeNVvxgQB99qCo-170" value="redis" style="shape=cylinder3;whiteSpace=wrap;html=1;boundedLbl=1;backgroundOutline=1;size=15;" vertex="1" parent="1">
          <mxGeometry x="671" y="300" width="60" height="80" as="geometry" />
        </mxCell>
        <mxCell id="NrHyhNAeNVvxgQB99qCo-198" value="线下测试依赖端上新版本包" style="text;spacingTop=-5;align=center;fontColor=#FF0000;" vertex="1" parent="1">
          <mxGeometry x="289" y="224" width="86" height="26" as="geometry" />
        </mxCell>
        <mxCell id="NrHyhNAeNVvxgQB99qCo-199" value="" style="endArrow=classic;html=1;rounded=0;strokeColor=#FF0000;strokeWidth=2;" edge="1" parent="1">
          <mxGeometry width="50" height="50" relative="1" as="geometry">
            <mxPoint x="254" y="244" as="sourcePoint" />
            <mxPoint x="171" y="268" as="targetPoint" />
          </mxGeometry>
        </mxCell>
        <mxCell id="NrHyhNAeNVvxgQB99qCo-171" style="edgeStyle=orthogonalEdgeStyle;rounded=0;orthogonalLoop=1;jettySize=auto;html=1;exitX=0.5;exitY=1;exitDx=0;exitDy=0;" edge="1" parent="1" source="NrHyhNAeNVvxgQB99qCo-134" target="NrHyhNAeNVvxgQB99qCo-170">
          <mxGeometry relative="1" as="geometry" />
        </mxCell>
        <mxCell id="NrHyhNAeNVvxgQB99qCo-138" style="edgeStyle=orthogonalEdgeStyle;rounded=0;orthogonalLoop=1;jettySize=auto;html=1;exitX=1;exitY=0.5;exitDx=0;exitDy=0;entryX=1;entryY=0.5;entryDx=0;entryDy=0;exitPerimeter=0;" edge="1" parent="1" source="NrHyhNAeNVvxgQB99qCo-170" target="NrHyhNAeNVvxgQB99qCo-136">
          <mxGeometry relative="1" as="geometry" />
        </mxCell>
      </root>
    </mxGraphModel>
  </diagram>
</mxfile>
